<svg xmlns="http://www.w3.org/2000/svg" viewBox="0 0 122 96" role="img" aria-labelledby="title desc">
  <title id="title">Логотип</title>
  <desc id="desc">Знак професійної хімчистки меблів</desc>
  <g fill="none" stroke-linecap="round" stroke-linejoin="round">
    <path d="M12 70A49 49 0 0 1 110 70" stroke="#21b278" stroke-width="8"/>
    <path d="M22 70A39 39 0 0 1 100 70" stroke="#a9ead1" stroke-width="4"/>
    <g stroke="#ffffff" stroke-width="2.3">
      <path d="M38 70v-8c0-5 4-9 9-9h30c5 0 9 4 9 9v8"/>
      <path d="M34 70h56v14H34z"/>
      <path d="M42 84v5m40-5v5M53 53v17m18-17v17"/>
      <path d="M58 42h8m-4-4v8M83 39l2 4 4 2-4 2-2 4-2-4-4-2 4-2z"/>
      <circle cx="42" cy="46" r="2" fill="#ffffff" stroke="none"/>
    </g>
  </g>
</svg>
